# xmcd
#
# Track frame offsets:
# 150
# 17016
# 29669
# 43718
# 59517
# 74341
# 85896
# 98081
# 109778
# 122970
# 135244
# 150530
#
# Disc length: 2200 seconds
#
#
# Revision: 0
# Processed by: cddbd v1.5.2PL0 Copyright (c) Steve Scherf et al.
# Submitted via: FreeRIP 2.945 
#
DISCID=9e08960c
DTITLE=El Bolero - 
DYEAR=1900
DGENRE=
TTITLE0=Besame Mucho
TTITLE1=Tu Precio
TTITLE2=Amôr Amôr
TTITLE3=Quiereme Mucho
TTITLE4=Perdidia
TTITLE5=Aquellos Ojos Verdes
TTITLE6=Tres Palabras
TTITLE7=Nuestro Juramento
TTITLE8=La Barca
TTITLE9=Angelitos Negros
TTITLE10=Acercate Más
TTITLE11=Mi Último Fracasso
EXTD=
EXTT0=
EXTT1=
EXTT2=
EXTT3=
EXTT4=
EXTT5=
EXTT6=
EXTT7=
EXTT8=
EXTT9=
EXTT10=
EXTT11=
PLAYORDER=
